<svg width="166" height="24" viewBox="0 0 166 24" fill="none" xmlns="http://www.w3.org/2000/svg">
<path d="M23.1525 23.8056H31.1476L11.3421 4H3.34692L23.1525 23.8056Z" fill="#7476ED"/>
<path d="M15.4497 4L34.5419 23.0922V4H29.3752V10.0278L23.3474 4L15.4497 4Z" fill="#E56F8C"/>
<path d="M0 4.66302V23.8055H5.16667V17.7777L11.1944 23.8055H19.1425L0 4.66302Z" fill="#64C2DB"/>
<path d="M47.2074 5.54545V23H43.517V5.54545H47.2074ZM53.8061 15.4318V23H50.1754V9.90909H53.6357V12.2188H53.7891C54.0788 11.4574 54.5646 10.8551 55.2464 10.4119C55.9283 9.96307 56.755 9.73864 57.7266 9.73864C58.6357 9.73864 59.4283 9.9375 60.1044 10.3352C60.7805 10.733 61.3061 11.3011 61.6811 12.0398C62.0561 12.7727 62.2436 13.6477 62.2436 14.6648V23H58.6129V15.3125C58.6186 14.5114 58.4141 13.8864 57.9993 13.4375C57.5845 12.983 57.0135 12.7557 56.2862 12.7557C55.7976 12.7557 55.3658 12.8608 54.9908 13.071C54.6214 13.2812 54.3317 13.5881 54.1214 13.9915C53.9169 14.3892 53.8118 14.8693 53.8061 15.4318ZM72.0682 9.90909V12.6364H64.1847V9.90909H72.0682ZM65.9744 6.77273H69.6051V18.9773C69.6051 19.3125 69.6563 19.5739 69.7585 19.7614C69.8608 19.9432 70.0028 20.071 70.1847 20.1449C70.3722 20.2187 70.5881 20.2557 70.8324 20.2557C71.0028 20.2557 71.1733 20.2415 71.3438 20.2131C71.5142 20.179 71.6449 20.1534 71.7358 20.1364L72.3068 22.8381C72.125 22.8949 71.8693 22.9602 71.5398 23.0341C71.2102 23.1136 70.8097 23.1619 70.3381 23.179C69.4631 23.2131 68.696 23.0966 68.0369 22.8295C67.3835 22.5625 66.875 22.1477 66.5114 21.5852C66.1477 21.0227 65.9688 20.3125 65.9744 19.4545V6.77273ZM80.2585 23.2557C78.9119 23.2557 77.7528 22.983 76.7812 22.4375C75.8153 21.8864 75.071 21.108 74.5483 20.1023C74.0256 19.0909 73.7642 17.8949 73.7642 16.5142C73.7642 15.1676 74.0256 13.9858 74.5483 12.9688C75.071 11.9517 75.8068 11.1591 76.7557 10.5909C77.7102 10.0227 78.8295 9.73864 80.1136 9.73864C80.9773 9.73864 81.7813 9.87784 82.5256 10.1562C83.2756 10.429 83.929 10.8409 84.4858 11.392C85.0483 11.9432 85.4858 12.6364 85.7983 13.4716C86.1108 14.3011 86.267 15.2727 86.267 16.3864V17.3835H75.2131V15.1335H82.8494C82.8494 14.6108 82.7358 14.1477 82.5085 13.7443C82.2813 13.3409 81.9659 13.0256 81.5625 12.7983C81.1648 12.5653 80.7017 12.4489 80.1733 12.4489C79.6222 12.4489 79.1335 12.5767 78.7074 12.8324C78.2869 13.0824 77.9574 13.4205 77.7188 13.8466C77.4801 14.267 77.358 14.7358 77.3523 15.2528V17.392C77.3523 18.0398 77.4716 18.5994 77.7102 19.071C77.9545 19.5426 78.2983 19.9062 78.7415 20.1619C79.1847 20.4176 79.7102 20.5455 80.3182 20.5455C80.7216 20.5455 81.0909 20.4886 81.4261 20.375C81.7614 20.2614 82.0483 20.0909 82.2869 19.8636C82.5256 19.6364 82.7074 19.358 82.8324 19.0284L86.1903 19.25C86.0199 20.0568 85.6705 20.7614 85.142 21.3636C84.6193 21.9602 83.9432 22.4261 83.1136 22.7614C82.2898 23.0909 81.3381 23.2557 80.2585 23.2557ZM98.1733 10.5653C98.1051 9.87784 97.8125 9.34375 97.2955 8.96307C96.7784 8.58239 96.0767 8.39204 95.1903 8.39204C94.5881 8.39204 94.0795 8.47727 93.6648 8.64773C93.25 8.8125 92.9318 9.04261 92.7102 9.33807C92.4943 9.63352 92.3864 9.96875 92.3864 10.3438C92.375 10.6562 92.4403 10.929 92.5824 11.1619C92.7301 11.3949 92.9318 11.5966 93.1875 11.767C93.4432 11.9318 93.7386 12.0767 94.0739 12.2017C94.4091 12.321 94.767 12.4233 95.1477 12.5085L96.7159 12.8835C97.4773 13.054 98.1761 13.2812 98.8125 13.5653C99.4489 13.8494 100 14.1989 100.466 14.6136C100.932 15.0284 101.293 15.517 101.548 16.0795C101.81 16.642 101.943 17.2869 101.949 18.0142C101.943 19.0824 101.67 20.0085 101.131 20.7926C100.597 21.571 99.8239 22.1761 98.8125 22.608C97.8068 23.0341 96.5938 23.2472 95.1733 23.2472C93.7642 23.2472 92.5369 23.0312 91.4915 22.5994C90.4517 22.1676 89.6392 21.5284 89.054 20.6818C88.4744 19.8295 88.1705 18.7756 88.142 17.5199H91.7131C91.7528 18.1051 91.9205 18.5937 92.2159 18.9858C92.517 19.3722 92.9176 19.6648 93.4176 19.8636C93.9233 20.0568 94.4943 20.1534 95.1307 20.1534C95.7557 20.1534 96.2983 20.0625 96.7585 19.8807C97.2244 19.6989 97.5852 19.446 97.8409 19.1222C98.0966 18.7983 98.2244 18.4261 98.2244 18.0057C98.2244 17.6136 98.108 17.2841 97.875 17.017C97.6477 16.75 97.3125 16.5227 96.8693 16.3352C96.4318 16.1477 95.8949 15.9773 95.2585 15.8239L93.358 15.3466C91.8864 14.9886 90.7244 14.429 89.8722 13.6676C89.0199 12.9062 88.5966 11.8807 88.6023 10.5909C88.5966 9.53409 88.8778 8.6108 89.446 7.82102C90.0199 7.03125 90.8068 6.41477 91.8068 5.97159C92.8068 5.52841 93.9432 5.30682 95.2159 5.30682C96.5114 5.30682 97.642 5.52841 98.608 5.97159C99.5795 6.41477 100.335 7.03125 100.875 7.82102C101.415 8.6108 101.693 9.52557 101.71 10.5653H98.1733ZM110.278 23.2557C108.954 23.2557 107.809 22.9744 106.843 22.4119C105.883 21.8437 105.141 21.054 104.619 20.0426C104.096 19.0256 103.835 17.8466 103.835 16.5057C103.835 15.1534 104.096 13.9716 104.619 12.9602C105.141 11.9432 105.883 11.1534 106.843 10.5909C107.809 10.0227 108.954 9.73864 110.278 9.73864C111.602 9.73864 112.744 10.0227 113.704 10.5909C114.67 11.1534 115.414 11.9432 115.937 12.9602C116.46 13.9716 116.721 15.1534 116.721 16.5057C116.721 17.8466 116.46 19.0256 115.937 20.0426C115.414 21.054 114.67 21.8437 113.704 22.4119C112.744 22.9744 111.602 23.2557 110.278 23.2557ZM110.295 20.4432C110.897 20.4432 111.4 20.2727 111.803 19.9318C112.207 19.5852 112.511 19.1136 112.715 18.517C112.925 17.9205 113.031 17.2415 113.031 16.4801C113.031 15.7188 112.925 15.0398 112.715 14.4432C112.511 13.8466 112.207 13.375 111.803 13.0284C111.4 12.6818 110.897 12.5085 110.295 12.5085C109.687 12.5085 109.175 12.6818 108.761 13.0284C108.352 13.375 108.042 13.8466 107.832 14.4432C107.627 15.0398 107.525 15.7188 107.525 16.4801C107.525 17.2415 107.627 17.9205 107.832 18.517C108.042 19.1136 108.352 19.5852 108.761 19.9318C109.175 20.2727 109.687 20.4432 110.295 20.4432ZM124.996 23.2557C123.656 23.2557 122.502 22.9716 121.536 22.4034C120.576 21.8295 119.837 21.0341 119.32 20.017C118.809 19 118.553 17.8295 118.553 16.5057C118.553 15.1648 118.812 13.9886 119.329 12.9773C119.852 11.9602 120.593 11.1676 121.553 10.5994C122.513 10.0256 123.656 9.73864 124.979 9.73864C126.121 9.73864 127.121 9.94602 127.979 10.3608C128.837 10.7756 129.516 11.358 130.016 12.108C130.516 12.858 130.792 13.7386 130.843 14.75H127.417C127.32 14.0966 127.065 13.571 126.65 13.1733C126.241 12.7699 125.704 12.5682 125.039 12.5682C124.477 12.5682 123.985 12.7216 123.565 13.0284C123.15 13.3295 122.826 13.7699 122.593 14.3494C122.36 14.929 122.244 15.6307 122.244 16.4545C122.244 17.2898 122.357 18 122.585 18.5852C122.817 19.1705 123.144 19.6165 123.565 19.9233C123.985 20.2301 124.477 20.3835 125.039 20.3835C125.454 20.3835 125.826 20.2983 126.156 20.1278C126.491 19.9574 126.766 19.7102 126.982 19.3864C127.204 19.0568 127.349 18.6619 127.417 18.2017H130.843C130.786 19.2017 130.513 20.0824 130.025 20.8438C129.542 21.5994 128.874 22.1903 128.022 22.6165C127.17 23.0426 126.161 23.2557 124.996 23.2557ZM133.168 23V9.90909H136.798V23H133.168ZM134.991 8.22159C134.452 8.22159 133.989 8.04261 133.602 7.68466C133.222 7.32102 133.031 6.88636 133.031 6.38068C133.031 5.88068 133.222 5.4517 133.602 5.09375C133.989 4.73011 134.452 4.54829 134.991 4.54829C135.531 4.54829 135.991 4.73011 136.372 5.09375C136.759 5.4517 136.952 5.88068 136.952 6.38068C136.952 6.88636 136.759 7.32102 136.372 7.68466C135.991 8.04261 135.531 8.22159 134.991 8.22159ZM143.44 23.2472C142.604 23.2472 141.86 23.1023 141.207 22.8125C140.553 22.517 140.036 22.0824 139.656 21.5085C139.281 20.929 139.093 20.2074 139.093 19.3438C139.093 18.6165 139.227 18.0057 139.494 17.5114C139.761 17.017 140.124 16.6193 140.585 16.3182C141.045 16.017 141.567 15.7898 142.153 15.6364C142.744 15.483 143.363 15.375 144.011 15.3125C144.772 15.233 145.386 15.1591 145.852 15.0909C146.317 15.017 146.656 14.9091 146.866 14.767C147.076 14.625 147.181 14.4148 147.181 14.1364V14.0852C147.181 13.5455 147.011 13.1278 146.67 12.8324C146.335 12.5369 145.857 12.3892 145.238 12.3892C144.585 12.3892 144.065 12.5341 143.678 12.8239C143.292 13.108 143.036 13.4659 142.911 13.8977L139.553 13.625C139.724 12.8295 140.059 12.142 140.559 11.5625C141.059 10.9773 141.704 10.5284 142.494 10.2159C143.289 9.89773 144.21 9.73864 145.255 9.73864C145.982 9.73864 146.678 9.82386 147.343 9.99432C148.013 10.1648 148.607 10.429 149.124 10.7869C149.647 11.1449 150.059 11.6051 150.36 12.1676C150.661 12.7244 150.812 13.392 150.812 14.1705V23H147.369V21.1847H147.266C147.056 21.5938 146.775 21.9545 146.423 22.267C146.07 22.5739 145.647 22.8153 145.153 22.9915C144.658 23.1619 144.087 23.2472 143.44 23.2472ZM144.479 20.7415C145.013 20.7415 145.485 20.6364 145.894 20.4261C146.303 20.2102 146.624 19.9205 146.857 19.5568C147.09 19.1932 147.207 18.7812 147.207 18.321V16.9318C147.093 17.0057 146.937 17.0739 146.738 17.1364C146.545 17.1932 146.326 17.2472 146.082 17.2983C145.837 17.3437 145.593 17.3864 145.349 17.4261C145.104 17.4602 144.883 17.4915 144.684 17.5199C144.258 17.5824 143.886 17.6818 143.567 17.8182C143.249 17.9545 143.002 18.1392 142.826 18.3722C142.65 18.5994 142.562 18.8835 142.562 19.2244C142.562 19.7188 142.741 20.0966 143.099 20.358C143.462 20.6136 143.923 20.7415 144.479 20.7415ZM157.259 5.54545V23H153.629V5.54545H157.259Z" fill="#3A3B7B"/>
</svg>
